<?xml version="1.0" standalone="no"?>
<!DOCTYPE svg PUBLIC "-//W3C//DTD SVG 20010904//EN"
 "http://www.w3.org/TR/2001/REC-SVG-20010904/DTD/svg10.dtd">
<svg version="1.0" xmlns="http://www.w3.org/2000/svg"
 width="50.000000pt" height="50.000000pt" viewBox="0 0 50.000000 50.000000"
 preserveAspectRatio="xMidYMid meet">
<metadata>
Created by potrace 1.16, written by Peter Selinger 2001-2019
</metadata>
<g transform="translate(0.000000,50.000000) scale(0.100000,-0.100000)"
fill="#000000" stroke="none">
<path d="M86 428 c-13 -18 -16 -52 -16 -163 0 -154 9 -185 56 -185 24 0 32
-14 14 -25 -14 -9 -12 -35 3 -35 6 0 21 14 32 30 18 27 25 30 75 30 50 0 57
-3 75 -30 11 -16 26 -30 33 -30 14 0 16 26 2 35 -18 11 -10 25 14 25 47 0 56
31 56 185 0 195 9 185 -180 185 -142 0 -150 -1 -164 -22z m306 -18 c0 -5 1
-15 2 -21 1 -7 -48 -10 -144 -10 -96 0 -145 3 -144 10 1 6 2 16 3 21 0 6 55
10 141 10 86 0 141 -4 142 -10z m-162 -105 l0 -35 -65 0 -65 0 0 35 0 35 65 0
65 0 0 -35z m170 0 l0 -35 -65 0 -65 0 0 35 0 35 65 0 65 0 0 -35z m0 -123 c0
-26 -5 -53 -12 -60 -17 -17 -259 -17 -276 0 -7 7 -12 34 -12 60 l0 48 150 0
150 0 0 -48z"/>
<path d="M144 175 c-7 -18 3 -35 21 -35 21 0 28 19 15 35 -16 19 -29 19 -36 0z"/>
<path d="M320 175 c-10 -11 -10 -19 -2 -27 15 -15 44 -2 40 19 -4 23 -22 27
-38 8z"/>
</g>
</svg>
